<svg id="Capa_1" enable-background="new 0 0 512 512" height="512" viewBox="0 0 512 512" width="512" xmlns="http://www.w3.org/2000/svg"><g><path d="m256.001 114.303c-4.267 0-7.726-3.459-7.726-7.726v-51.478c0-4.267 3.459-7.726 7.726-7.726s7.726 3.459 7.726 7.726v51.478c0 4.267-3.459 7.726-7.726 7.726z" fill="#eaf9fa"/><path d="m268.878 246.975h-25.755c-2.845 0-5.151-2.306-5.151-5.151v-145.873c0-2.845 2.306-5.151 5.151-5.151h15.453c2.845 0 5.151 2.306 5.151 5.151l10.302 145.874c0 2.844-2.306 5.15-5.151 5.15z" fill="#00f2a6"/><path d="m274.03 95.952v145.873c0 2.843-2.308 5.151-5.151 5.151h-16.483c2.843 0 5.151-2.308 5.151-5.151v-145.873c0-2.843-2.308-5.151-5.151-5.151h16.483c2.844 0 5.151 2.308 5.151 5.151z" fill="#05e39c"/><path d="m256.001 62.013c14.224 0 22.255-11.809 17.878-25.343l-13.34-25.588c-1.943-3.619-7.133-3.619-9.076 0l-3.702 3.803-11.698 21.785c-3.468 10.721 2.144 21.652 11.696 25.733 2.507 1.071 5.285-.39 8.242-.39z" fill="#ffc269"/><path d="m256.002 64.078c-2.957 0-5.738-.598-8.241-1.669 9.55-4.09 15.164-15.02 11.693-25.744l-11.693-21.778 3.698-6.892c1.947-3.626 7.139-3.626 9.076 0l15.401 28.67c4.379 13.537-5.707 27.413-19.934 27.413z" fill="#ffa95f"/><path d="m155.446 114.303c-4.267 0-7.726-3.459-7.726-7.726v-51.478c0-4.267 3.459-7.726 7.726-7.726s7.726 3.459 7.726 7.726v51.478c.001 4.267-3.459 7.726-7.726 7.726z" fill="#eaf9fa"/><path d="m168.324 246.975h-25.755c-2.845 0-5.151-2.306-5.151-5.151v-145.873c0-2.845 2.306-5.151 5.151-5.151h15.453c2.845 0 5.151 2.306 5.151 5.151l10.302 145.874c0 2.844-2.307 5.15-5.151 5.15z" fill="#00f2a6"/><path d="m173.476 95.952v145.873c0 2.843-2.308 5.151-5.151 5.151h-16.483c2.843 0 5.151-2.308 5.151-5.151v-145.873c0-2.843-2.307-5.151-5.151-5.151h16.483c2.843 0 5.151 2.308 5.151 5.151z" fill="#05e39c"/><path d="m155.446 62.013c14.224 0 22.255-11.809 17.878-25.343l-13.34-25.588c-1.943-3.619-7.133-3.619-9.076 0l-3.702 3.803-11.698 21.785c-3.467 10.721 2.144 21.652 11.696 25.733 2.507 1.071 5.286-.39 8.242-.39z" fill="#ffc269"/><path d="m155.448 64.078c-2.956 0-5.738-.598-8.241-1.669 9.55-4.09 15.164-15.02 11.693-25.744l-11.693-21.778 3.698-6.892c1.947-3.626 7.139-3.626 9.076 0l15.401 28.67c4.378 13.537-5.707 27.413-19.934 27.413z" fill="#ffa95f"/><path d="m356.554 114.303c-4.267 0-7.726-3.459-7.726-7.726v-51.478c0-4.267 3.459-7.726 7.726-7.726s7.726 3.459 7.726 7.726v51.478c.001 4.267-3.459 7.726-7.726 7.726z" fill="#eaf9fa"/><path d="m369.432 246.975h-25.754c-2.845 0-5.151-2.306-5.151-5.151v-145.873c0-2.845 2.306-5.151 5.151-5.151h15.453c2.845 0 5.151 2.306 5.151 5.151l10.302 145.874c-.001 2.844-2.308 5.15-5.152 5.15z" fill="#00f2a6"/><path d="m374.584 95.952v145.873c0 2.843-2.308 5.151-5.151 5.151h-16.483c2.843 0 5.151-2.308 5.151-5.151v-145.873c0-2.843-2.308-5.151-5.151-5.151h16.483c2.843 0 5.151 2.308 5.151 5.151z" fill="#05e39c"/><path d="m86.86 188.927h317.676v190.469h-317.676z" fill="#ffe07d"/><path d="m363.324 188.926h61.811v190.47h-61.811z" fill="#ffd064"/><path d="m35.606 324.216h399.58v152.711h-399.58z" fill="#c68d7a"/><path d="m404.284 324.22h72.113v152.704h-72.113z" fill="#bc7c63"/><path d="m434.218 468.23h-407.945c-14.51 0-26.273 11.763-26.273 26.273 0 6.75 5.472 12.222 12.221 12.222h436.048c6.75 0 12.221-5.472 12.221-12.222.001-14.51-11.762-26.273-26.272-26.273z" fill="#eaf9fa"/><path d="m356.554 62.013c14.224 0 22.255-11.809 17.878-25.343l-13.34-25.588c-1.943-3.619-7.133-3.619-9.076 0l-3.702 3.803-11.698 21.785c-3.467 10.721 2.144 21.652 11.696 25.733 2.507 1.071 5.286-.39 8.242-.39z" fill="#ffc269"/><path d="m356.556 64.078c-2.957 0-5.738-.598-8.242-1.669 9.55-4.09 15.164-15.02 11.693-25.744l-11.693-21.778 3.698-6.892c1.947-3.626 7.139-3.626 9.076 0l15.401 28.67c4.379 13.537-5.706 27.413-19.933 27.413z" fill="#ffa95f"/><path d="m459.888 314.354-51.509-2.06h-366.569c-13.164 0-23.836 10.672-23.836 23.836 0 13.164 10.672 23.836 23.836 23.836h22.017c5.69 0 10.302 4.612 10.302 10.302v95.218c0 8.706 7.057 15.763 15.763 15.763 8.706 0 15.763-7.057 15.763-15.763v-95.218c0-5.69 4.612-10.302 10.302-10.302h55.07c5.689 0 10.302 4.612 10.302 10.302v25.165c0 8.706 7.057 15.763 15.763 15.763 8.706 0 15.763-7.057 15.763-15.763v-25.165c0-5.69 4.612-10.302 10.302-10.302h59.722c5.689 0 10.302 4.612 10.302 10.302v51.95c0 8.706 7.057 15.763 15.763 15.763 8.706 0 15.763-7.057 15.763-15.763v-51.95c0-5.69 4.612-10.302 10.302-10.302h69.779c5.69 0 20.604 4.612 20.604 10.302v20.313c0 8.706-3.244 5.461 5.461 5.461 8.706 0 5.461 3.244 5.461-5.461v-20.313c0-5.69 14.914-20.604 20.604-20.604h13.272c13.164 0 13.534-.37 13.534-13.535 0-13.163-10.672-21.775-23.836-21.775z" fill="#fe93d3"/><path d="m485.727 468.23h-61.811c14.51 0 26.273 11.763 26.273 26.273 0 6.75-5.472 12.222-12.221 12.222h61.811c6.75 0 12.222-5.472 12.222-12.222-.001-14.51-11.764-26.273-26.274-26.273z" fill="#d4f2f6"/><path d="m470.19 312.294h-61.811c13.164 0 23.836 10.672 23.836 23.836 0 13.164-10.672 23.836-23.836 23.836h-3.591c5.69 0 10.302 4.612 10.302 10.302v20.313c0 8.706 7.057 15.763 15.763 15.763s15.763-7.057 15.763-15.763v-20.313c0-5.69 4.612-10.302 10.302-10.302h13.272c13.164 0 23.836-10.672 23.836-23.836 0-13.164-10.672-23.836-23.836-23.836z" fill="#fe73c5"/><g><path d="m419.562 170.948-61.733-2.06h-265.391c-13.164 0-23.836 10.672-23.836 23.836 0 13.164 10.672 23.836 23.836 23.836h18.915c5.69 0 10.302 4.612 10.302 10.302v35.467c0 8.706 7.057 15.763 15.763 15.763 8.706 0 15.763-7.057 15.763-15.763v-35.467c0-5.689 4.612-10.302 10.302-10.302h40.647c5.69 0 10.302 4.612 10.302 10.302v13.833c0 8.706 7.057 15.763 15.763 15.763 8.706 0 15.763-7.057 15.763-15.763v-13.833c0-5.689 4.612-10.302 10.302-10.302h90.627c5.69 0 20.604 4.612 20.604 10.302v35.467c0 8.706-3.245 5.461 5.461 5.461 8.706 0 5.461 3.245 5.461-5.461v-35.467c0-5.689 14.914-20.604 20.604-20.604h20.546c-14.307 0 23.836-.37 23.836-13.534 0-13.165-10.672-21.776-23.837-21.776z" fill="#fe93d3"/></g><g><path d="m419.562 168.888h-61.811c13.164 0 23.836 10.672 23.836 23.836 0 13.164-10.672 23.836-23.836 23.836h-10.865c5.69 0 10.302 4.612 10.302 10.302v35.467c0 8.706 7.057 15.763 15.763 15.763s15.763-7.057 15.763-15.763v-35.467c0-5.689 4.612-10.302 10.302-10.302h20.546c13.164 0 23.836-10.672 23.836-23.836.001-13.165-10.671-23.836-23.836-23.836z" fill="#fe73c5"/></g></g></svg>