<svg id="Layer_1" data-name="Layer 1"
 xmlns="http://www.w3.org/2000/svg"
 viewBox="0 0 512 512">
 <defs>
 <style>.cls-1{fill:#adb8bc;}.cls-2{fill:#ffc84d;}.cls-3{fill:#ffb232;}.cls-4{fill:#dfe5e8;}.cls-5{fill:#f4536a;}.cls-6{fill:#ee374b;}.cls-7{fill:#ff9750;}.cls-8{fill:#d0d9dd;}</style></defs>
 <title>cake-flat</title>
 <path class="cls-1" d="M266.67,93.33a10.67,10.67,0,1,0-21.33,0v32h21.33Z"/>
 <rect class="cls-2" x="229.33" y="125.33" width="53.33" height="96"/>
 <rect class="cls-3" x="256" y="125.33" width="26.67" height="96"/>
 <rect class="cls-2" x="90.67" y="258.67" width="330.67" height="218.67"/>
 <path class="cls-3" d="M384,258.67H90.67V389.74a26.68,26.68,0,0,0,16-24.41v-48a10.67,10.67,0,0,1,21.33,0v5.33a32,32,0,0,0,64,0v-5.33a10.67,10.67,0,0,1,21.33,0v21.33a32,32,0,0,0,64,0V317.33a10.67,10.67,0,0,1,21.33,0v48a32,32,0,0,0,64,0v-48a10.67,10.67,0,0,1,21.33,0v160h37.33V258.67Z"/><path class="cls-4" d="M410.67,226.67H101.33a32,32,0,0,0-32,32V344A21.33,21.33,0,0,0,112,344V296a16,16,0,0,1,32,0v5.33a26.67,26.67,0,1,0,53.33,0V296a16,16,0,0,1,32,0v21.33a26.67,26.67,0,1,0,53.33,0V296a16,16,0,0,1,32,0v48A26.67,26.67,0,1,0,368,344V296a16,16,0,0,1,32,0v21.33a21.33,21.33,0,1,0,42.67,0V258.67A32,32,0,0,0,410.67,226.67Z"/><path class="cls-5" d="M263.54,27.13a10.66,10.66,0,0,0-15.08,0C244.38,31.21,224,52.57,224,72a32,32,0,0,0,64,0C288,52.57,267.63,31.21,263.54,27.13Z"/><circle class="cls-5" cx="122.67" cy="221.33" r="26.67"/>
 <path class="cls-2" d="M21.33,488H10.67a10.67,10.67,0,1,1,0-21.33H21.33a10.67,10.67,0,1,1,0,21.33Z"/>
 <path class="cls-2" d="M442.67,488h-384a10.67,10.67,0,1,1,0-21.33h384a10.67,10.67,0,0,1,0,21.33Z"/>
 <path class="cls-2" d="M501.33,488H480a10.67,10.67,0,1,1,0-21.33h21.33a10.67,10.67,0,1,1,0,21.33Z"/>
 <path class="cls-6" d="M130,195.81a23.24,23.24,0,0,1-32.83,32.83A26.6,26.6,0,1,0,130,195.81Z"/>
 <circle class="cls-5" cx="176" cy="221.33" r="26.67"/>
 <path class="cls-6" d="M183.3,195.81a23.24,23.24,0,0,1-32.83,32.83,26.6,26.6,0,1,0,32.83-32.83Z"/>
 circle class="cls-5" cx="229.33" cy="221.33" r="26.67"/>
 <path class="cls-6" d="M236.63,195.81a23.24,23.24,0,0,1-32.83,32.83,26.6,26.6,0,1,0,32.83-32.83Z"/><circle class="cls-5" cx="282.67" cy="221.33" r="26.67"/><path class="cls-6" d="M290,195.81a23.24,23.24,0,0,1-32.83,32.83A26.6,26.6,0,1,0,290,195.81Z"/><circle class="cls-5" cx="336" cy="221.33" r="26.67"/><path class="cls-6" d="M343.3,195.81a23.24,23.24,0,0,1-32.83,32.83,26.6,26.6,0,1,0,32.83-32.83Z"/><circle class="cls-5" cx="389.33" cy="221.33" r="26.67"/><path class="cls-6" d="M396.63,195.81a23.24,23.24,0,0,1-32.83,32.83,26.6,26.6,0,1,0,32.83-32.83Z"/><path class="cls-7" d="M261,52.75a7.11,7.11,0,0,0-10.06,0c-2.72,2.72-16.31,17-16.31,29.92a21.33,21.33,0,1,0,42.67,0C277.33,69.71,263.75,55.47,261,52.75Z"/><path class="cls-2" d="M258.51,78.38a3.55,3.55,0,0,0-5,0c-1.36,1.36-8.15,8.48-8.15,15a10.67,10.67,0,0,0,21.33,0C266.67,86.86,259.88,79.74,258.51,78.38Z"/><path class="cls-4" d="M442.67,258.67v58.67a21.33,21.33,0,1,1-42.67,0V296a16,16,0,0,0-32,0v48a26.67,26.67,0,1,1-53.33,0V296a16,16,0,0,0-32,0v21.33a26.67,26.67,0,1,1-53.33,0V296a16,16,0,0,0-32,0v5.33a26.67,26.67,0,1,1-53.33,0V296a16,16,0,0,0-32,0v48a21.33,21.33,0,0,1-42.67,0V258.67a32,32,0,0,1,32-32H410.67A32,32,0,0,1,442.67,258.67Z"/><path class="cls-8" d="M442.67,258.67v58.67a21.33,21.33,0,1,1-42.67,0V296a16,16,0,0,0-5.33-11.89V226.67h16A32,32,0,0,1,442.67,258.67Z"/></svg>