<svg id="Capa_1"
enable-background="new 0 0 501.982 501.982"
height="512" viewBox="0 0 501.982 501.982"
width="512" xmlns="http://www.w3.org/2000/svg">
<g><g id="icon_35_">
<path d="m20.532 214.421h457.833v206.337h-457.833z" fill="#fed19a"/>
<path d="m306.573 53.213c11.36-5.419 24.353-6.327 36.357-2.54 45.833 14.49 156.61 59.992 159.053 161.691v212.476c0 15.89-12.882 28.772-28.772 28.772h-453.707c-10.772 0-19.504-8.732-19.504-19.503 0-.004 0-.008 0-.012v-4.108c0-10.772 8.732-19.504 19.504-19.504h446.544v-71.856h-446.544c-10.772 0-19.504-8.732-19.504-19.503 0-10.772 8.732-19.504 19.504-19.504h446.544v-69.787h-447.175c-10.423 0-18.873-8.45-18.873-18.873 0-.006 0-.012 0-.018.001-7.283 4.191-13.915 10.768-17.043z" fill="#eaa14e"/><path d="m20.532 229.817h445.516v22.393h-445.516z" fill="#f4bb87"/>
<path d="m20.532 338.476h445.516v22.393h-445.516z" fill="#f4bb87"/>
<path d="m303.414 117.154s0-35.279 30.969-49.016c1.576-.673 3.386-.505 4.812.447l1.224.808c1.273.833 1.631 2.54.798 3.813-.257.393-.609.713-1.024.931-8.087 4.352-24.872 16.73-29.568 45.998" fill="#fed19a"/>
<path d="m352.24 150.309c-.037 24.853-20.215 44.97-45.068 44.933s-44.97-20.215-44.933-45.068c.037-24.822 20.166-44.926 44.988-44.933 24.68-.18 44.833 19.681 45.013 44.361.002.235.002.471 0 .707z" fill="#da364c"/>
<path d="m352.24 150.309c.013 7.249-1.737 14.392-5.099 20.814-20.164 14.529-48.288 9.961-62.817-10.203-9.968-13.834-11.261-32.113-3.34-47.212 20.184-14.501 48.302-9.893 62.802 10.291 5.508 7.665 8.466 16.87 8.454 26.31z" fill="#ef5261"/></g></g></svg>