<svg id="Capa_1" enable-background="new 0 0 501.978 501.978" height="512" viewBox="0 0 501.978 501.978" width="512" xmlns="http://www.w3.org/2000/svg"><g><g id="icon_22_"><path d="m417.572 300.984-36.632 172.275c0 6.93-8.791 12.592-23.171 17.03-6.437 1.922-12.977 3.482-19.589 4.671-9.795 1.837-20.814 3.287-32.555 4.395-6.22.612-12.672 1.071-19.246 1.463-9.305.557-18.855.912-28.515 1.028-6.373.159-12.794.159-19.167.037-10.652-.08-21.23-.435-31.484-1.071-6.575-.398-13.027-.869-19.246-1.463-11.76-1.108-22.773-2.577-32.555-4.395-6.612-1.189-13.152-2.749-19.589-4.671-14.374-4.438-23.17-10.101-23.17-17.03l-36.656-172.27h341.575z" fill="#f2b15a"/><path d="m257.852 304.246v197.607c-6.373.159-12.794.159-19.167.037v-197.644z" fill="#eaa14e"/><path d="m316.265 304.246-10.652 195.085c-6.22.612-12.672 1.071-19.246 1.463l10.731-196.548z" fill="#eaa14e"/><path d="m374.659 304.246-16.908 186.019c-6.437 1.922-12.977 3.482-19.589 4.671l17.349-190.69z" fill="#eaa14e"/><path d="m207.201 500.819c-6.575-.398-13.027-.869-19.246-1.463l-10.658-195.11h19.167z" fill="#eaa14e"/><path d="m155.4 494.961c-6.612-1.189-13.152-2.749-19.589-4.671l-16.926-186.043h19.167z" fill="#eaa14e"/><path d="m308.661 0s12.378 48.018-77.745 64.853-169.772 78.216-119.28 113.361c0 0-46.525 8.417-43.066 53.956 0 0-46.684 26.739-27.664 78.247 3.335 9.05 10.625 16.079 19.791 19.081 16.798 5.479 46.978 9.03 80.114-16.633.073.11 47.088 70.246 118.809 11.386 0 .043 21.818 48.031 99.006 23.526 20.201-6.409 28.105-16.528 28.772-27.982 0 0 24.205 24.26 56.38-4.45s19.308-53.467 19.308-53.467-14.851-34.636-51.483-34.153c0 0 33.669-23.262-1.977-82.183-9.627-18.151-30.19-27.638-50.247-23.183 0 .001 9.158-57.016-50.718-122.359z" fill="#fed19a"/><ellipse cx="256.693" cy="121.535" fill="#2cbfae" rx="8.417" ry="14.612" transform="matrix(.919 -.396 .396 .919 -27.138 111.431)"/><ellipse cx="374.69" cy="223.636" fill="#69b0ee" rx="8.417" ry="14.612"/><ellipse cx="230.272" cy="187.947" fill="#575b6d" rx="14.612" ry="8.417" transform="matrix(.796 -.605 .605 .796 -66.789 177.744)"/><ellipse cx="279.26" cy="251.755" fill="#2cbfae" rx="8.417" ry="14.612" transform="matrix(.722 -.692 .692 .722 -96.56 262.982)"/><ellipse cx="166.165" cy="268.32" fill="#62667c" rx="14.612" ry="8.417" transform="matrix(.683 -.731 .731 .683 -143.346 206.597)"/><ellipse cx="110.475" cy="217.837" fill="#69b0ee" rx="8.417" ry="14.612" transform="matrix(.52 -.855 .855 .52 -133.053 199.08)"/><ellipse cx="374.677" cy="169.239" fill="#2cbfae" rx="14.612" ry="8.417"/><ellipse cx="321.687" cy="66.533" fill="#575b6d" rx="8.417" ry="14.612" transform="matrix(.335 -.942 .942 .335 151.343 347.411)"/><ellipse cx="177.297" cy="125.933" fill="#69b0ee" rx="14.612" ry="8.417" transform="matrix(.908 -.418 .418 .908 -36.424 85.724)"/><g fill="#ef5261"><path d="m316.291 154.659 10.233-10.233c1.592-1.592 4.173-1.593 5.764-.002 1.591 1.591 1.59 4.171-.002 5.764l-10.233 10.233c-1.592 1.592-4.173 1.593-5.764.002-1.591-1.591-1.59-4.172.002-5.764z"/><path d="m274.308 181.145c2.098-.813 4.458.23 5.272 2.329l5.229 13.494c.814 2.1-.227 4.461-2.325 5.274-2.098.813-4.458-.23-5.272-2.329l-5.229-13.494c-.814-2.1.227-4.461 2.325-5.274z"/><path d="m317.457 215.64c1.591-1.591 4.171-1.59 5.764.002l10.233 10.233c1.592 1.592 1.593 4.173.002 5.764-1.591 1.591-4.171 1.59-5.764-.002l-10.233-10.233c-1.592-1.593-1.593-4.173-.002-5.764z"/><path d="m225.927 260.164h14.472c2.252 0 4.077 1.824 4.077 4.074 0 2.25-1.825 4.074-4.077 4.074h-14.472c-2.252 0-4.077-1.824-4.077-4.074 0-2.25 1.826-4.074 4.077-4.074z"/><path d="m335.85 266.049 10.233-10.233c1.592-1.592 4.173-1.593 5.764-.002 1.591 1.591 1.59 4.171-.002 5.764l-10.233 10.233c-1.592 1.592-4.173 1.593-5.764.002-1.592-1.591-1.591-4.172.002-5.764z"/><path d="m405.485 252.167c1.591-1.591 4.171-1.59 5.764.002l10.233 10.233c1.592 1.592 1.593 4.173.002 5.764-1.591 1.591-4.171 1.59-5.764-.002l-10.233-10.233c-1.592-1.593-1.593-4.173-.002-5.764z"/><path d="m181.374 211.381h14.472c2.252 0 4.077 1.824 4.077 4.074 0 2.25-1.825 4.074-4.077 4.074h-14.472c-2.252 0-4.077-1.824-4.077-4.074 0-2.25 1.825-4.074 4.077-4.074z"/><path d="m91.918 264.235h14.472c2.252 0 4.077 1.824 4.077 4.074 0 2.25-1.825 4.074-4.077 4.074h-14.472c-2.252 0-4.077-1.824-4.077-4.074 0-2.25 1.825-4.074 4.077-4.074z"/><path d="m152.167 165.175h14.472c2.252 0 4.077 1.824 4.077 4.074 0 2.25-1.825 4.074-4.077 4.074h-14.472c-2.252 0-4.077-1.824-4.077-4.074 0-2.25 1.826-4.074 4.077-4.074z"/><path d="m220.13 84.246h14.472c2.252 0 4.077 1.824 4.077 4.074 0 2.25-1.825 4.074-4.077 4.074h-14.472c-2.252 0-4.077-1.824-4.077-4.074 0-2.25 1.825-4.074 4.077-4.074z"/><path d="m294.651 103.491c1.648-1.532 4.227-1.437 5.76.212l9.854 10.599c1.533 1.649 1.44 4.228-.208 5.76-1.648 1.532-4.227 1.437-5.76-.212l-9.854-10.599c-1.533-1.649-1.44-4.228.208-5.76z"/></g></g></g></svg>