<?xml version="1.0" encoding="iso-8859-1"?>
<!-- Generator: Adobe Illustrator 19.0.0, SVG Export Plug-In . SVG Version: 6.00 Build 0)  -->
<svg version="1.1" id="Capa_1" xmlns="http://www.w3.org/2000/svg" xmlns:xlink="http://www.w3.org/1999/xlink" x="0px" y="0px"
	 viewBox="0 0 512 512" style="enable-background:new 0 0 512 512;" xml:space="preserve">
<path style="fill:#FDCA74;" d="M256,11.035c-138.338,0-250.482,112.144-250.482,250.482S117.662,512,256,512
	s250.482-112.144,250.482-250.482S394.338,11.035,256,11.035z M256,348.821c-48.216,0-87.303-39.087-87.303-87.303
	s39.087-87.303,87.303-87.303s87.303,39.087,87.303,87.303C343.303,309.734,304.216,348.821,256,348.821z"/>
<path style="fill:#E6B25B;" d="M36.423,261.518c0-133.147,103.892-242.01,235.03-249.994c-5.113-0.311-10.262-0.488-15.453-0.488
	C117.662,11.035,5.518,123.179,5.518,261.518S117.662,512,256,512c5.191,0,10.34-0.177,15.453-0.488
	C140.315,503.528,36.423,394.665,36.423,261.518z"/>
<path style="fill:#FA9EB0;" d="M64.558,216.831c-2.266,0-4.512-0.992-6.038-2.9l-13.242-16.552
	c-2.666-3.333-2.125-8.194,1.206-10.86c3.331-2.666,8.194-2.125,10.86,1.206l13.242,16.552c2.666,3.333,2.125,8.194-1.206,10.86
	C67.954,216.277,66.25,216.831,64.558,216.831z"/>
<path style="fill:#A8503C;" d="M362.555,412.638c-2.266,0-4.512-0.992-6.038-2.9l-13.241-16.552
	c-2.666-3.332-2.125-8.194,1.206-10.86c3.332-2.665,8.193-2.125,10.86,1.207l13.241,16.552c2.666,3.332,2.125,8.194-1.206,10.86
	C365.952,412.085,364.247,412.638,362.555,412.638z"/>
<path style="fill:#FA9EB0;" d="M465.661,269.796c-2.266,0-4.512-0.992-6.038-2.9l-13.241-16.552
	c-2.666-3.332-2.125-8.194,1.206-10.86c3.332-2.665,8.194-2.125,10.86,1.207l13.241,16.552c2.666,3.332,2.125,8.194-1.206,10.86
	C469.057,269.242,467.353,269.796,465.661,269.796z"/>
<path style="fill:#A8503C;" d="M433.034,394.575c-0.775,0-1.563-0.117-2.34-0.365c-4.067-1.292-6.317-5.635-5.026-9.702
	l6.415-20.203c1.291-4.067,5.636-6.316,9.702-5.026c4.067,1.292,6.317,5.635,5.026,9.702l-6.415,20.203
	C439.352,392.474,436.311,394.575,433.034,394.575z"/>
<path style="fill:#FB8D4B;" d="M94.717,282.149c-1.971,0-3.941-0.749-5.449-2.248c-3.026-3.009-3.039-7.902-0.029-10.927
	l14.948-15.028c3.009-3.025,7.901-3.038,10.926-0.03c3.025,3.008,3.039,7.901,0.029,10.927l-14.948,15.028
	C98.686,281.389,96.702,282.149,94.717,282.149z"/>
<path style="fill:#FA9EB0;" d="M286.997,468.358c-1.971,0-3.941-0.749-5.449-2.248c-3.026-3.009-3.039-7.9-0.03-10.926
	l14.947-15.029c3.009-3.026,7.902-3.038,10.927-0.03c3.026,3.009,3.039,7.901,0.03,10.927l-14.947,15.029
	C290.966,467.599,288.981,468.358,286.997,468.358z"/>
<path style="fill:#FB8D4B;" d="M397.524,319.688c-2.832,0-5.559-1.563-6.914-4.267c-1.911-3.815-0.368-8.458,3.447-10.369
	l18.951-9.495c3.816-1.911,8.457-0.368,10.369,3.447c1.911,3.815,0.368,8.458-3.447,10.369l-18.951,9.495
	C399.868,319.425,398.686,319.688,397.524,319.688z"/>
<g>
	<path style="fill:#A8503C;" d="M390.154,222.404c-1.347,0-2.711-0.352-3.952-1.093c-3.664-2.187-4.861-6.93-2.674-10.594
		l10.863-18.201c2.187-3.663,6.929-4.862,10.594-2.674c3.664,2.187,4.861,6.93,2.674,10.594l-10.863,18.201
		C395.351,221.059,392.786,222.404,390.154,222.404z"/>
	<path style="fill:#A8503C;" d="M83.643,345.566c-0.945,0-1.905-0.174-2.836-0.542l-19.715-7.786
		c-3.969-1.567-5.915-6.055-4.348-10.025c1.568-3.969,6.056-5.914,10.024-4.347l19.715,7.786c3.969,1.567,5.915,6.055,4.348,10.025
		C89.631,343.713,86.721,345.566,83.643,345.566z"/>
</g>
<path style="fill:#FB8D4B;" d="M220.393,436.484c-1.897,0-3.796-0.693-5.288-2.094l-15.452-14.511
	c-3.111-2.922-3.264-7.811-0.343-10.921c2.922-3.11,7.812-3.264,10.922-0.343l15.452,14.511c3.111,2.922,3.264,7.811,0.343,10.921
	C224.507,435.666,222.452,436.484,220.393,436.484z"/>
<g>
	<path style="fill:#FA9EB0;" d="M131.744,384.631c-4.213,0-7.659-3.383-7.723-7.61c-0.065-4.267,3.343-7.778,7.609-7.842
		l21.194-0.318c4.222-0.047,7.778,3.343,7.842,7.61c0.065,4.267-3.343,7.778-7.609,7.842l-21.193,0.317
		C131.824,384.63,131.783,384.631,131.744,384.631z"/>
	<path style="fill:#FA9EB0;" d="M255.544,0c70.024-0.12,135.876,27.095,185.378,76.596c10.765,10.765,24.008,29.064,34.448,44.488
		c8.269,12.218-5.629,27.445-18.431,20.112c-0.109-0.063-0.217-0.126-0.326-0.189l0,0c-17.712-10.32-39.605-10.32-57.318,0l0,0
		c-17.712,10.32-39.605,10.32-57.318,0l0,0c-17.712-10.32-39.605-10.32-57.318,0l0,0c-8.857,5.16-18.758,7.741-28.66,7.741
		c-9.901,0-19.803-2.58-28.66-7.741l0,0c-17.712-10.32-39.605-10.32-57.318,0l0,0c-17.712,10.32-39.605,10.32-57.318,0l0,0
		c-17.712-10.32-39.605-10.32-57.318,0l0,0c-0.108,0.063-0.217,0.126-0.326,0.189c-12.802,7.332-26.7-7.895-18.431-20.112
		c10.441-15.425,23.684-33.724,34.448-44.488C120.582,27.095,186.433-0.118,256.458,0H255.544z"/>
</g>
<g>
	<path style="fill:#ED6883;" d="M255.544,0.001c0.152,0,0.304,0.004,0.457,0.004c0.154,0,0.304-0.005,0.457-0.004
		C256.459,0.001,255.544,0.001,255.544,0.001z"/>
	<path style="fill:#ED6883;" d="M55.388,141.011c2.146-1.251,4.355-2.346,6.608-3.294c11.649-16.903,25.442-35.517,36.883-46.956
		C149.719,39.92,215.12,8.938,285.675,1.672c-9.784-1.097-19.684-1.667-29.673-1.667c-69.853,0-135.526,27.198-184.922,76.591
		c-10.765,10.765-24.008,29.064-34.448,44.489c-8.269,12.218,5.629,27.445,18.431,20.112
		C55.171,141.136,55.279,141.073,55.388,141.011L55.388,141.011z"/>
</g>
<g>
	<path style="fill:#3B484A;" d="M170.904,95.923c-4.267,0-7.726-3.459-7.726-7.726V72.795c0-4.267,3.459-7.726,7.726-7.726
		c4.267,0,7.726,3.459,7.726,7.726v15.401C178.631,92.463,175.171,95.923,170.904,95.923z"/>
	<path style="fill:#3B484A;" d="M341.096,95.923c-4.267,0-7.726-3.459-7.726-7.726V72.795c0-4.267,3.459-7.726,7.726-7.726
		c4.267,0,7.726,3.459,7.726,7.726v15.401C348.823,92.463,345.363,95.923,341.096,95.923z"/>
	<path style="fill:#3B484A;" d="M256,104.143c-10.415,0-20.192-4.349-26.821-11.934c-2.808-3.213-2.481-8.094,0.732-10.902
		c3.213-2.807,8.094-2.481,10.902,0.732c3.694,4.227,9.229,6.651,15.186,6.651c5.956,0,11.491-2.424,15.185-6.651
		c2.808-3.213,7.689-3.541,10.902-0.732c3.213,2.808,3.541,7.689,0.732,10.902C276.191,99.794,266.415,104.143,256,104.143z"/>
</g>
<g>
</g>
<g>
</g>
<g>
</g>
<g>
</g>
<g>
</g>
<g>
</g>
<g>
</g>
<g>
</g>
<g>
</g>
<g>
</g>
<g>
</g>
<g>
</g>
<g>
</g>
<g>
</g>
<g>
</g>
</svg>
