<?xml version="1.0" encoding="iso-8859-1"?>
<!-- Generator: Adobe Illustrator 19.0.0, SVG Export Plug-In . SVG Version: 6.00 Build 0)  -->
<svg version="1.1" id="Capa_1" xmlns="http://www.w3.org/2000/svg" xmlns:xlink="http://www.w3.org/1999/xlink" x="0px" y="0px"
	 viewBox="0 0 512.004 512.004" style="enable-background:new 0 0 512.004 512.004;" xml:space="preserve">
<path style="fill:#FF485A;" d="M256.06,476c-6.667,0.02-13.062-2.61-17.771-7.329L40.196,270.276
	c-53.595-53.595-53.595-140.482,0-194.077s140.482-53.595,194.077,0l0,0l21.787,21.787l21.787-21.787
	c53.554-53.564,140.392-53.575,193.957-0.02c0.01,0.01,0.01,0.01,0.02,0.02l0,0c53.564,53.554,53.574,140.392,0.02,193.957
	c-0.01,0.01-0.01,0.01-0.02,0.02L273.831,468.37C269.173,473.199,262.767,475.95,256.06,476z M137.285,86.34
	c-48.022-0.181-87.099,38.595-87.279,86.617c-0.09,23.303,9.187,45.673,25.733,62.079l180.724,180.724l179.619-180.724
	c34.046-33.876,34.177-88.946,0.301-122.992s-88.946-34.177-122.992-0.301l0,0L273.831,151.3
	c-4.719,4.709-11.115,7.339-17.771,7.329l0,0c-6.657,0.01-13.052-2.62-17.771-7.329l-39.558-39.558
	C182.435,95.457,160.327,86.31,137.285,86.34z"/>
<path style="fill:#FFBBC0;" d="M124.835,189.854c-1.657-0.02-3.303-0.181-4.92-0.502c-3.233-0.612-6.305-1.878-9.036-3.715
	c-1.335-0.954-2.61-1.988-3.815-3.112c-4.659-4.749-7.289-11.125-7.329-17.771c-0.151-1.637-0.151-3.283,0-4.92
	c0.622-3.233,1.878-6.305,3.715-9.036c0.954-1.345,1.988-2.62,3.112-3.815c1.195-1.124,2.47-2.159,3.815-3.112
	c2.731-1.837,5.803-3.092,9.036-3.715c3.313-0.633,6.727-0.633,10.04,0c3.233,0.612,6.305,1.878,9.036,3.715
	c1.345,0.954,2.62,1.988,3.815,3.112c1.125,1.205,2.159,2.48,3.112,3.815c0.904,1.365,1.677,2.811,2.309,4.317
	c0.622,1.526,1.094,3.102,1.406,4.719c0.321,1.616,0.482,3.263,0.502,4.92c-0.04,6.647-2.671,13.022-7.329,17.771
	c-1.205,1.124-2.48,2.159-3.815,3.112c-2.731,1.837-5.803,3.102-9.036,3.715C127.937,189.654,126.391,189.824,124.835,189.854z"/>
<g>
</g>
<g>
</g>
<g>
</g>
<g>
</g>
<g>
</g>
<g>
</g>
<g>
</g>
<g>
</g>
<g>
</g>
<g>
</g>
<g>
</g>
<g>
</g>
<g>
</g>
<g>
</g>
<g>
</g>
</svg>
